<?xml version="1.0" encoding="utf-8"?><!-- Uploaded to: SVG Repo, www.svgrepo.com, Generator: SVG Repo Mixer Tools -->
<svg fill="#000000" width="800px" height="800px" viewBox="0 0 24 24" id="email-file-text" data-name="Flat Color" xmlns="http://www.w3.org/2000/svg" class="icon flat-color"><path id="secondary" d="M5.29,4.29l2-2A1,1,0,0,1,8,2h9a2,2,0,0,1,2,2v7a1,1,0,0,1-.45.83l-5.44,3.63h0a2,2,0,0,1-2.22,0L5.45,11.83A1,1,0,0,1,5,11V5A1,1,0,0,1,5.29,4.29Z" style="fill: rgb(44, 169, 188);"></path><path id="primary" d="M3.06,9.1a2,2,0,0,1,2.05.1L12,13.8l6.89-4.6A2,2,0,0,1,22,10.87V20a2,2,0,0,1-2,2H4a2,2,0,0,1-2-2V10.87A2,2,0,0,1,3.06,9.1ZM8,2a1,1,0,0,0-.71.28l-2,2A1,1,0,0,0,5,5H7A1,1,0,0,0,8,4Z" style="fill: rgb(0, 0, 0);"></path></svg>